<svg width="16" height="16" viewBox="0 0 16 16" fill="none" xmlns="http://www.w3.org/2000/svg">
<path d="M16 9.49996C16 8.51296 15.571 7.60296 14.853 6.86096C14.124 10.348 10.66 13 6.50001 13C6.39701 13 6.29801 12.982 6.19501 12.979C7.23101 13.617 8.55601 14 10 14C10.449 14 10.886 13.96 11.307 13.89L15 16V12H14.988C15.627 11.285 16 10.425 16 9.49996Z" fill="#94A3B8"/>
<path d="M6.5 0C2.91 0 0 2.462 0 5.5C0 6.575 0.37 7.574 1 8.422V12L3.699 10.458C4.548 10.802 5.496 11 6.5 11C10.09 11 13 8.538 13 5.5C13 2.462 10.09 0 6.5 0Z" fill="#64748B"/>
</svg>
