<svg width="24" height="24" viewBox="0 0 24 24" fill="none" xmlns="http://www.w3.org/2000/svg">
<path d="M12 0C5.383 0 0 5.383 0 12C0 18.617 5.383 24 12 24C18.617 24 24 18.617 24 12C24 5.383 18.617 0 12 0Z" fill="#6366F1"/>
<path d="M12 3C7.03725 3 3 7.03725 3 12C3 16.9627 7.03725 21 12 21C16.9627 21 21 16.9627 21 12C21 7.03725 16.9627 3 12 3Z" fill="#4F46E5"/>
<path d="M12 15C10.346 15 9 13.654 9 12C9 11.538 9.113 11.106 9.3 10.715L6 6L10.714 9.301C11.106 9.114 11.538 9 12 9C13.654 9 15 10.346 15 12C15 13.654 13.654 15 12 15Z" fill="#C7D2FE"/>
</svg>
