<svg width="16" height="16" viewBox="0 0 16 16" fill="none" xmlns="http://www.w3.org/2000/svg">
<path fill-rule="evenodd" clip-rule="evenodd" d="M0 7C0 10.86 3.14 14 7 14C10.86 14 14 10.86 14 7C14 3.14 10.86 0 7 0C3.14 0 0 3.14 0 7ZM2 7C2 4.243 4.243 2 7 2C9.757 2 12 4.243 12 7C12 9.757 9.757 12 7 12C4.243 12 2 9.757 2 7Z" fill="#64748B"/>
<path d="M15.707 14.293L13.314 11.9C12.903 12.429 12.429 12.903 11.9 13.314L14.293 15.707C14.488 15.902 14.744 16 15 16C15.256 16 15.512 15.902 15.707 15.707C16.098 15.316 16.098 14.684 15.707 14.293Z" fill="#94A3B8"/>
</svg>
